G04 #@! TF.GenerationSoftware,KiCad,Pcbnew,(5.1.4)-1*
G04 #@! TF.CreationDate,2024-07-22T15:45:51+08:00*
G04 #@! TF.ProjectId,samo4k-pcb-test,73616d6f-346b-42d7-9063-622d74657374,rev?*
G04 #@! TF.SameCoordinates,Original*
G04 #@! TF.FileFunction,Legend,Bot*
G04 #@! TF.FilePolarity,Positive*
%FSLAX46Y46*%
G04 Gerber Fmt 4.6, Leading zero omitted, Abs format (unit mm)*
G04 Created by KiCad (PCBNEW (5.1.4)-1) date 2024-07-22 15:45:51*
%MOMM*%
%LPD*%
G04 APERTURE LIST*
%ADD10C,0.120000*%
%ADD11C,0.150000*%
G04 APERTURE END LIST*
D10*
X149637500Y-58800000D02*
X145637500Y-58800000D01*
X149637500Y-55500000D02*
X149637500Y-58800000D01*
D11*
X123150000Y-52578000D02*
X123150000Y-58028000D01*
X130850000Y-52578000D02*
X130850000Y-58028000D01*
X123150000Y-58028000D02*
X130850000Y-58028000D01*
X142462500Y-74450000D02*
X141187500Y-74450000D01*
X152812500Y-75025000D02*
X152137500Y-75025000D01*
X152812500Y-64675000D02*
X152137500Y-64675000D01*
X142462500Y-64675000D02*
X143137500Y-64675000D01*
X142462500Y-75025000D02*
X143137500Y-75025000D01*
X142462500Y-64675000D02*
X142462500Y-65350000D01*
X152812500Y-64675000D02*
X152812500Y-65350000D01*
X152812500Y-75025000D02*
X152812500Y-74350000D01*
X142462500Y-75025000D02*
X142462500Y-74450000D01*
X128806250Y-80743750D02*
X123606250Y-80743750D01*
X123606250Y-80743750D02*
X123606250Y-85943750D01*
X123606250Y-85943750D02*
X128806250Y-85943750D01*
X128806250Y-85943750D02*
X128806250Y-80743750D01*
X127206250Y-83343750D02*
G75*
G03X127206250Y-83343750I-1000000J0D01*
G01*
D10*
X155658750Y-74871078D02*
X155658750Y-74353922D01*
X157078750Y-74871078D02*
X157078750Y-74353922D01*
X135815000Y-62171078D02*
X135815000Y-61653922D01*
X137235000Y-62171078D02*
X137235000Y-61653922D01*
X129415000Y-61183578D02*
X129415000Y-60666422D01*
X130835000Y-61183578D02*
X130835000Y-60666422D01*
X123908750Y-61377328D02*
X123908750Y-60860172D01*
X125328750Y-61377328D02*
X125328750Y-60860172D01*
X122353750Y-66072936D02*
X122353750Y-67277064D01*
X120533750Y-66072936D02*
X120533750Y-67277064D01*
X197850000Y-81625000D02*
X197850000Y-77725000D01*
X195850000Y-81625000D02*
X195850000Y-77725000D01*
X197850000Y-81625000D02*
X195850000Y-81625000D01*
X178800000Y-81625000D02*
X178800000Y-77725000D01*
X176800000Y-81625000D02*
X176800000Y-77725000D01*
X178800000Y-81625000D02*
X176800000Y-81625000D01*
X197850000Y-62575000D02*
X197850000Y-58675000D01*
X195850000Y-62575000D02*
X195850000Y-58675000D01*
X197850000Y-62575000D02*
X195850000Y-62575000D01*
X178800000Y-62575000D02*
X178800000Y-58675000D01*
X176800000Y-62575000D02*
X176800000Y-58675000D01*
X178800000Y-62575000D02*
X176800000Y-62575000D01*
X143410172Y-78665000D02*
X143927328Y-78665000D01*
X143410172Y-80085000D02*
X143927328Y-80085000D01*
X137577328Y-69766250D02*
X137060172Y-69766250D01*
X137577328Y-68346250D02*
X137060172Y-68346250D01*
X150896250Y-57408578D02*
X150896250Y-56891422D01*
X152316250Y-57408578D02*
X152316250Y-56891422D01*
X144378750Y-56891422D02*
X144378750Y-57408578D01*
X142958750Y-56891422D02*
X142958750Y-57408578D01*
X151864828Y-80085000D02*
X151347672Y-80085000D01*
X151864828Y-78665000D02*
X151347672Y-78665000D01*
X138990000Y-62171078D02*
X138990000Y-61653922D01*
X140410000Y-62171078D02*
X140410000Y-61653922D01*
X155658750Y-65346078D02*
X155658750Y-64828922D01*
X157078750Y-65346078D02*
X157078750Y-64828922D01*
D11*
X148113690Y-54676190D02*
X148113690Y-55152380D01*
X148447023Y-54152380D02*
X148113690Y-54676190D01*
X147780357Y-54152380D01*
X146923214Y-55152380D02*
X147494642Y-55152380D01*
X147208928Y-55152380D02*
X147208928Y-54152380D01*
X147304166Y-54295238D01*
X147399404Y-54390476D01*
X147494642Y-54438095D01*
X128738095Y-54062380D02*
X128738095Y-54871904D01*
X128690476Y-54967142D01*
X128642857Y-55014761D01*
X128547619Y-55062380D01*
X128357142Y-55062380D01*
X128261904Y-55014761D01*
X128214285Y-54967142D01*
X128166666Y-54871904D01*
X128166666Y-54062380D01*
X127738095Y-55014761D02*
X127595238Y-55062380D01*
X127357142Y-55062380D01*
X127261904Y-55014761D01*
X127214285Y-54967142D01*
X127166666Y-54871904D01*
X127166666Y-54776666D01*
X127214285Y-54681428D01*
X127261904Y-54633809D01*
X127357142Y-54586190D01*
X127547619Y-54538571D01*
X127642857Y-54490952D01*
X127690476Y-54443333D01*
X127738095Y-54348095D01*
X127738095Y-54252857D01*
X127690476Y-54157619D01*
X127642857Y-54110000D01*
X127547619Y-54062380D01*
X127309523Y-54062380D01*
X127166666Y-54110000D01*
X126404761Y-54538571D02*
X126261904Y-54586190D01*
X126214285Y-54633809D01*
X126166666Y-54729047D01*
X126166666Y-54871904D01*
X126214285Y-54967142D01*
X126261904Y-55014761D01*
X126357142Y-55062380D01*
X126738095Y-55062380D01*
X126738095Y-54062380D01*
X126404761Y-54062380D01*
X126309523Y-54110000D01*
X126261904Y-54157619D01*
X126214285Y-54252857D01*
X126214285Y-54348095D01*
X126261904Y-54443333D01*
X126309523Y-54490952D01*
X126404761Y-54538571D01*
X126738095Y-54538571D01*
X125214285Y-55062380D02*
X125785714Y-55062380D01*
X125500000Y-55062380D02*
X125500000Y-54062380D01*
X125595238Y-54205238D01*
X125690476Y-54300476D01*
X125785714Y-54348095D01*
X148399404Y-76752380D02*
X148399404Y-77561904D01*
X148351785Y-77657142D01*
X148304166Y-77704761D01*
X148208928Y-77752380D01*
X148018452Y-77752380D01*
X147923214Y-77704761D01*
X147875595Y-77657142D01*
X147827976Y-77561904D01*
X147827976Y-76752380D01*
X146827976Y-77752380D02*
X147399404Y-77752380D01*
X147113690Y-77752380D02*
X147113690Y-76752380D01*
X147208928Y-76895238D01*
X147304166Y-76990476D01*
X147399404Y-77038095D01*
X127539583Y-87812511D02*
X127396726Y-87860130D01*
X127158630Y-87860130D01*
X127063392Y-87812511D01*
X127015773Y-87764892D01*
X126968154Y-87669654D01*
X126968154Y-87574416D01*
X127015773Y-87479178D01*
X127063392Y-87431559D01*
X127158630Y-87383940D01*
X127349107Y-87336321D01*
X127444345Y-87288702D01*
X127491964Y-87241083D01*
X127539583Y-87145845D01*
X127539583Y-87050607D01*
X127491964Y-86955369D01*
X127444345Y-86907750D01*
X127349107Y-86860130D01*
X127111011Y-86860130D01*
X126968154Y-86907750D01*
X126634821Y-86860130D02*
X126396726Y-87860130D01*
X126206250Y-87145845D01*
X126015773Y-87860130D01*
X125777678Y-86860130D01*
X124872916Y-87860130D02*
X125444345Y-87860130D01*
X125158630Y-87860130D02*
X125158630Y-86860130D01*
X125253869Y-87002988D01*
X125349107Y-87098226D01*
X125444345Y-87145845D01*
X158471130Y-74445833D02*
X157994940Y-74112500D01*
X158471130Y-73874404D02*
X157471130Y-73874404D01*
X157471130Y-74255357D01*
X157518750Y-74350595D01*
X157566369Y-74398214D01*
X157661607Y-74445833D01*
X157804464Y-74445833D01*
X157899702Y-74398214D01*
X157947321Y-74350595D01*
X157994940Y-74255357D01*
X157994940Y-73874404D01*
X157804464Y-75302976D02*
X158471130Y-75302976D01*
X157423511Y-75064880D02*
X158137797Y-74826785D01*
X158137797Y-75445833D01*
X138627380Y-61745833D02*
X138151190Y-61412500D01*
X138627380Y-61174404D02*
X137627380Y-61174404D01*
X137627380Y-61555357D01*
X137675000Y-61650595D01*
X137722619Y-61698214D01*
X137817857Y-61745833D01*
X137960714Y-61745833D01*
X138055952Y-61698214D01*
X138103571Y-61650595D01*
X138151190Y-61555357D01*
X138151190Y-61174404D01*
X137627380Y-62079166D02*
X137627380Y-62698214D01*
X138008333Y-62364880D01*
X138008333Y-62507738D01*
X138055952Y-62602976D01*
X138103571Y-62650595D01*
X138198809Y-62698214D01*
X138436904Y-62698214D01*
X138532142Y-62650595D01*
X138579761Y-62602976D01*
X138627380Y-62507738D01*
X138627380Y-62222023D01*
X138579761Y-62126785D01*
X138532142Y-62079166D01*
X132227380Y-60758333D02*
X131751190Y-60425000D01*
X132227380Y-60186904D02*
X131227380Y-60186904D01*
X131227380Y-60567857D01*
X131275000Y-60663095D01*
X131322619Y-60710714D01*
X131417857Y-60758333D01*
X131560714Y-60758333D01*
X131655952Y-60710714D01*
X131703571Y-60663095D01*
X131751190Y-60567857D01*
X131751190Y-60186904D01*
X131322619Y-61139285D02*
X131275000Y-61186904D01*
X131227380Y-61282142D01*
X131227380Y-61520238D01*
X131275000Y-61615476D01*
X131322619Y-61663095D01*
X131417857Y-61710714D01*
X131513095Y-61710714D01*
X131655952Y-61663095D01*
X132227380Y-61091666D01*
X132227380Y-61710714D01*
X126721130Y-60952083D02*
X126244940Y-60618750D01*
X126721130Y-60380654D02*
X125721130Y-60380654D01*
X125721130Y-60761607D01*
X125768750Y-60856845D01*
X125816369Y-60904464D01*
X125911607Y-60952083D01*
X126054464Y-60952083D01*
X126149702Y-60904464D01*
X126197321Y-60856845D01*
X126244940Y-60761607D01*
X126244940Y-60380654D01*
X126721130Y-61904464D02*
X126721130Y-61333035D01*
X126721130Y-61618750D02*
X125721130Y-61618750D01*
X125863988Y-61523511D01*
X125959226Y-61428273D01*
X126006845Y-61333035D01*
X119552321Y-66341666D02*
X119552321Y-66008333D01*
X120076130Y-66008333D02*
X119076130Y-66008333D01*
X119076130Y-66484523D01*
X120076130Y-67389285D02*
X120076130Y-66817857D01*
X120076130Y-67103571D02*
X119076130Y-67103571D01*
X119218988Y-67008333D01*
X119314226Y-66913095D01*
X119361845Y-66817857D01*
X199302380Y-78636904D02*
X198302380Y-78636904D01*
X198302380Y-78875000D01*
X198350000Y-79017857D01*
X198445238Y-79113095D01*
X198540476Y-79160714D01*
X198730952Y-79208333D01*
X198873809Y-79208333D01*
X199064285Y-79160714D01*
X199159523Y-79113095D01*
X199254761Y-79017857D01*
X199302380Y-78875000D01*
X199302380Y-78636904D01*
X198635714Y-80065476D02*
X199302380Y-80065476D01*
X198254761Y-79827380D02*
X198969047Y-79589285D01*
X198969047Y-80208333D01*
X180252380Y-78636904D02*
X179252380Y-78636904D01*
X179252380Y-78875000D01*
X179300000Y-79017857D01*
X179395238Y-79113095D01*
X179490476Y-79160714D01*
X179680952Y-79208333D01*
X179823809Y-79208333D01*
X180014285Y-79160714D01*
X180109523Y-79113095D01*
X180204761Y-79017857D01*
X180252380Y-78875000D01*
X180252380Y-78636904D01*
X179252380Y-79541666D02*
X179252380Y-80160714D01*
X179633333Y-79827380D01*
X179633333Y-79970238D01*
X179680952Y-80065476D01*
X179728571Y-80113095D01*
X179823809Y-80160714D01*
X180061904Y-80160714D01*
X180157142Y-80113095D01*
X180204761Y-80065476D01*
X180252380Y-79970238D01*
X180252380Y-79684523D01*
X180204761Y-79589285D01*
X180157142Y-79541666D01*
X199302380Y-59586904D02*
X198302380Y-59586904D01*
X198302380Y-59825000D01*
X198350000Y-59967857D01*
X198445238Y-60063095D01*
X198540476Y-60110714D01*
X198730952Y-60158333D01*
X198873809Y-60158333D01*
X199064285Y-60110714D01*
X199159523Y-60063095D01*
X199254761Y-59967857D01*
X199302380Y-59825000D01*
X199302380Y-59586904D01*
X198397619Y-60539285D02*
X198350000Y-60586904D01*
X198302380Y-60682142D01*
X198302380Y-60920238D01*
X198350000Y-61015476D01*
X198397619Y-61063095D01*
X198492857Y-61110714D01*
X198588095Y-61110714D01*
X198730952Y-61063095D01*
X199302380Y-60491666D01*
X199302380Y-61110714D01*
X180252380Y-59586904D02*
X179252380Y-59586904D01*
X179252380Y-59825000D01*
X179300000Y-59967857D01*
X179395238Y-60063095D01*
X179490476Y-60110714D01*
X179680952Y-60158333D01*
X179823809Y-60158333D01*
X180014285Y-60110714D01*
X180109523Y-60063095D01*
X180204761Y-59967857D01*
X180252380Y-59825000D01*
X180252380Y-59586904D01*
X180252380Y-61110714D02*
X180252380Y-60539285D01*
X180252380Y-60825000D02*
X179252380Y-60825000D01*
X179395238Y-60729761D01*
X179490476Y-60634523D01*
X179538095Y-60539285D01*
X143835416Y-81382142D02*
X143883035Y-81429761D01*
X144025892Y-81477380D01*
X144121130Y-81477380D01*
X144263988Y-81429761D01*
X144359226Y-81334523D01*
X144406845Y-81239285D01*
X144454464Y-81048809D01*
X144454464Y-80905952D01*
X144406845Y-80715476D01*
X144359226Y-80620238D01*
X144263988Y-80525000D01*
X144121130Y-80477380D01*
X144025892Y-80477380D01*
X143883035Y-80525000D01*
X143835416Y-80572619D01*
X143502083Y-80477380D02*
X142835416Y-80477380D01*
X143263988Y-81477380D01*
X137485416Y-67763392D02*
X137533035Y-67811011D01*
X137675892Y-67858630D01*
X137771130Y-67858630D01*
X137913988Y-67811011D01*
X138009226Y-67715773D01*
X138056845Y-67620535D01*
X138104464Y-67430059D01*
X138104464Y-67287202D01*
X138056845Y-67096726D01*
X138009226Y-67001488D01*
X137913988Y-66906250D01*
X137771130Y-66858630D01*
X137675892Y-66858630D01*
X137533035Y-66906250D01*
X137485416Y-66953869D01*
X136628273Y-66858630D02*
X136818750Y-66858630D01*
X136913988Y-66906250D01*
X136961607Y-66953869D01*
X137056845Y-67096726D01*
X137104464Y-67287202D01*
X137104464Y-67668154D01*
X137056845Y-67763392D01*
X137009226Y-67811011D01*
X136913988Y-67858630D01*
X136723511Y-67858630D01*
X136628273Y-67811011D01*
X136580654Y-67763392D01*
X136533035Y-67668154D01*
X136533035Y-67430059D01*
X136580654Y-67334821D01*
X136628273Y-67287202D01*
X136723511Y-67239583D01*
X136913988Y-67239583D01*
X137009226Y-67287202D01*
X137056845Y-67334821D01*
X137104464Y-67430059D01*
X153613392Y-56983333D02*
X153661011Y-56935714D01*
X153708630Y-56792857D01*
X153708630Y-56697619D01*
X153661011Y-56554761D01*
X153565773Y-56459523D01*
X153470535Y-56411904D01*
X153280059Y-56364285D01*
X153137202Y-56364285D01*
X152946726Y-56411904D01*
X152851488Y-56459523D01*
X152756250Y-56554761D01*
X152708630Y-56697619D01*
X152708630Y-56792857D01*
X152756250Y-56935714D01*
X152803869Y-56983333D01*
X152708630Y-57888095D02*
X152708630Y-57411904D01*
X153184821Y-57364285D01*
X153137202Y-57411904D01*
X153089583Y-57507142D01*
X153089583Y-57745238D01*
X153137202Y-57840476D01*
X153184821Y-57888095D01*
X153280059Y-57935714D01*
X153518154Y-57935714D01*
X153613392Y-57888095D01*
X153661011Y-57840476D01*
X153708630Y-57745238D01*
X153708630Y-57507142D01*
X153661011Y-57411904D01*
X153613392Y-57364285D01*
X142375892Y-56983333D02*
X142423511Y-56935714D01*
X142471130Y-56792857D01*
X142471130Y-56697619D01*
X142423511Y-56554761D01*
X142328273Y-56459523D01*
X142233035Y-56411904D01*
X142042559Y-56364285D01*
X141899702Y-56364285D01*
X141709226Y-56411904D01*
X141613988Y-56459523D01*
X141518750Y-56554761D01*
X141471130Y-56697619D01*
X141471130Y-56792857D01*
X141518750Y-56935714D01*
X141566369Y-56983333D01*
X141804464Y-57840476D02*
X142471130Y-57840476D01*
X141423511Y-57602380D02*
X142137797Y-57364285D01*
X142137797Y-57983333D01*
X151772916Y-78082142D02*
X151820535Y-78129761D01*
X151963392Y-78177380D01*
X152058630Y-78177380D01*
X152201488Y-78129761D01*
X152296726Y-78034523D01*
X152344345Y-77939285D01*
X152391964Y-77748809D01*
X152391964Y-77605952D01*
X152344345Y-77415476D01*
X152296726Y-77320238D01*
X152201488Y-77225000D01*
X152058630Y-77177380D01*
X151963392Y-77177380D01*
X151820535Y-77225000D01*
X151772916Y-77272619D01*
X151439583Y-77177380D02*
X150820535Y-77177380D01*
X151153869Y-77558333D01*
X151011011Y-77558333D01*
X150915773Y-77605952D01*
X150868154Y-77653571D01*
X150820535Y-77748809D01*
X150820535Y-77986904D01*
X150868154Y-78082142D01*
X150915773Y-78129761D01*
X151011011Y-78177380D01*
X151296726Y-78177380D01*
X151391964Y-78129761D01*
X151439583Y-78082142D01*
X141707142Y-61745833D02*
X141754761Y-61698214D01*
X141802380Y-61555357D01*
X141802380Y-61460119D01*
X141754761Y-61317261D01*
X141659523Y-61222023D01*
X141564285Y-61174404D01*
X141373809Y-61126785D01*
X141230952Y-61126785D01*
X141040476Y-61174404D01*
X140945238Y-61222023D01*
X140850000Y-61317261D01*
X140802380Y-61460119D01*
X140802380Y-61555357D01*
X140850000Y-61698214D01*
X140897619Y-61745833D01*
X140897619Y-62126785D02*
X140850000Y-62174404D01*
X140802380Y-62269642D01*
X140802380Y-62507738D01*
X140850000Y-62602976D01*
X140897619Y-62650595D01*
X140992857Y-62698214D01*
X141088095Y-62698214D01*
X141230952Y-62650595D01*
X141802380Y-62079166D01*
X141802380Y-62698214D01*
X158375892Y-64920833D02*
X158423511Y-64873214D01*
X158471130Y-64730357D01*
X158471130Y-64635119D01*
X158423511Y-64492261D01*
X158328273Y-64397023D01*
X158233035Y-64349404D01*
X158042559Y-64301785D01*
X157899702Y-64301785D01*
X157709226Y-64349404D01*
X157613988Y-64397023D01*
X157518750Y-64492261D01*
X157471130Y-64635119D01*
X157471130Y-64730357D01*
X157518750Y-64873214D01*
X157566369Y-64920833D01*
X158471130Y-65873214D02*
X158471130Y-65301785D01*
X158471130Y-65587500D02*
X157471130Y-65587500D01*
X157613988Y-65492261D01*
X157709226Y-65397023D01*
X157756845Y-65301785D01*
M02*
