G04 #@! TF.GenerationSoftware,KiCad,Pcbnew,(5.1.4)-1*
G04 #@! TF.CreationDate,2024-07-22T15:45:51+08:00*
G04 #@! TF.ProjectId,samo4k-pcb-test,73616d6f-346b-42d7-9063-622d74657374,rev?*
G04 #@! TF.SameCoordinates,Original*
G04 #@! TF.FileFunction,Copper,L1,Top*
G04 #@! TF.FilePolarity,Positive*
%FSLAX46Y46*%
G04 Gerber Fmt 4.6, Leading zero omitted, Abs format (unit mm)*
G04 Created by KiCad (PCBNEW (5.1.4)-1) date 2024-07-22 15:45:51*
%MOMM*%
%LPD*%
G04 APERTURE LIST*
%ADD10O,1.700000X2.700000*%
%ADD11R,1.905000X1.905000*%
%ADD12C,1.905000*%
%ADD13C,2.250000*%
%ADD14C,2.250000*%
%ADD15C,0.800000*%
%ADD16C,0.381000*%
%ADD17C,0.254000*%
G04 APERTURE END LIST*
D10*
X123350000Y-52578000D03*
X130650000Y-52578000D03*
X130650000Y-57078000D03*
X123350000Y-57078000D03*
D11*
X190182500Y-84455000D03*
D12*
X187642500Y-84455000D03*
D13*
X186412500Y-75375000D03*
X185757501Y-76105000D03*
D14*
X185102500Y-76835000D02*
X186412502Y-75375000D01*
D13*
X191452500Y-74295000D03*
X191432500Y-74585000D03*
D14*
X191412500Y-74875000D02*
X191452500Y-74295000D01*
D11*
X171132500Y-84455000D03*
D12*
X168592500Y-84455000D03*
D13*
X167362500Y-75375000D03*
X166707501Y-76105000D03*
D14*
X166052500Y-76835000D02*
X167362502Y-75375000D01*
D13*
X172402500Y-74295000D03*
X172382500Y-74585000D03*
D14*
X172362500Y-74875000D02*
X172402500Y-74295000D01*
D11*
X190182500Y-65405000D03*
D12*
X187642500Y-65405000D03*
D13*
X186412500Y-56325000D03*
X185757501Y-57055000D03*
D14*
X185102500Y-57785000D02*
X186412502Y-56325000D01*
D13*
X191452500Y-55245000D03*
X191432500Y-55535000D03*
D14*
X191412500Y-55825000D02*
X191452500Y-55245000D01*
D11*
X171132500Y-65405000D03*
D12*
X168592500Y-65405000D03*
D13*
X167362500Y-56325000D03*
X166707501Y-57055000D03*
D14*
X166052500Y-57785000D02*
X167362502Y-56325000D01*
D13*
X172402500Y-55245000D03*
X172382500Y-55535000D03*
D14*
X172362500Y-55825000D02*
X172402500Y-55245000D01*
D15*
X150812500Y-65881250D03*
X146843750Y-65881250D03*
X131548904Y-59531250D03*
X128587500Y-59260500D03*
X154781250Y-76993750D03*
X141287500Y-76200000D03*
X137318750Y-75406250D03*
X140493750Y-73025000D03*
X142977976Y-73049999D03*
X143668750Y-69056250D03*
X151606250Y-66675000D03*
X149225000Y-67468750D03*
X150018750Y-54768750D03*
X150018750Y-60325000D03*
X146843750Y-60325000D03*
X145256250Y-56356250D03*
X146843750Y-55562500D03*
X150018750Y-53768747D03*
X154781250Y-70643750D03*
X177800000Y-82550000D03*
X156368750Y-70643750D03*
X196056250Y-83343750D03*
X196056250Y-83343750D03*
X123031250Y-60325000D03*
X125412500Y-58737500D03*
X154781250Y-69056250D03*
X161925000Y-57150000D03*
X132556250Y-81756250D03*
X133350000Y-61118750D03*
X144447231Y-62705881D03*
X134937500Y-62706250D03*
D16*
X150812500Y-65881250D02*
X146843750Y-65881250D01*
X131548904Y-59531250D02*
X130848904Y-59531250D01*
X130848904Y-59531250D02*
X128858250Y-59531250D01*
X128858250Y-59531250D02*
X128587500Y-59260500D01*
X154781250Y-76993750D02*
X154781250Y-80962500D01*
X154781250Y-80962500D02*
X153987500Y-81756250D01*
X153987500Y-81756250D02*
X140493750Y-81756250D01*
X140493750Y-81756250D02*
X140493750Y-78581250D01*
X140493750Y-78581250D02*
X140493750Y-76200000D01*
X140493750Y-76200000D02*
X141287500Y-76200000D01*
X137318750Y-75406250D02*
X139700000Y-73025000D01*
X139700000Y-73025000D02*
X140493750Y-73025000D01*
X142977976Y-73049999D02*
X146818751Y-73049999D01*
X146818751Y-73049999D02*
X146843750Y-73025000D01*
X146843750Y-73025000D02*
X146843750Y-69056250D01*
X146843750Y-69056250D02*
X143668750Y-69056250D01*
X151606250Y-66675000D02*
X149225000Y-66675000D01*
X149225000Y-66675000D02*
X149225000Y-67468750D01*
D17*
X150018750Y-54768750D02*
X150018750Y-60325000D01*
X146843750Y-60325000D02*
X146843750Y-59531250D01*
X146843750Y-59531250D02*
X145256250Y-59531250D01*
X145256250Y-59531250D02*
X145256250Y-56356250D01*
X146843750Y-55562500D02*
X148431250Y-53975000D01*
X148431250Y-53975000D02*
X149812497Y-53975000D01*
X149812497Y-53975000D02*
X150018750Y-53768747D01*
X154781250Y-70643750D02*
X156368750Y-72231250D01*
X156368750Y-72231250D02*
X162718750Y-78581250D01*
X162718750Y-79090212D02*
X161925000Y-79883962D01*
X162718750Y-78581250D02*
X162718750Y-79090212D01*
X161925000Y-79883962D02*
X161925000Y-81756250D01*
X163344249Y-83175499D02*
X177631749Y-83175499D01*
X161925000Y-81756250D02*
X163344249Y-83175499D01*
X177631749Y-83175499D02*
X177800000Y-83007248D01*
X177800000Y-83007248D02*
X177800000Y-82550000D01*
X156368750Y-70643750D02*
X159543750Y-73818750D01*
X186349249Y-72842999D02*
X192087500Y-78581250D01*
X159543750Y-73818750D02*
X160519501Y-72842999D01*
X160519501Y-72842999D02*
X186349249Y-72842999D01*
X192087500Y-78581250D02*
X192087500Y-81756250D01*
X192087500Y-81756250D02*
X193675000Y-83343750D01*
X193675000Y-83343750D02*
X196056250Y-83343750D01*
D16*
X123031250Y-60325000D02*
X123825000Y-60325000D01*
X123825000Y-60325000D02*
X125412500Y-58737500D01*
D17*
X184591844Y-57274344D02*
X185102500Y-57785000D01*
X166052500Y-57785000D02*
X166563156Y-57274344D01*
X154781250Y-69056250D02*
X156368750Y-67468750D01*
X156368750Y-67468750D02*
X158750000Y-67468750D01*
X158750000Y-67468750D02*
X161925000Y-64293750D01*
X161925000Y-64293750D02*
X161925000Y-58737500D01*
X161925000Y-58737500D02*
X161925000Y-57150000D01*
X184467500Y-57150000D02*
X185102500Y-57785000D01*
X175418750Y-57150000D02*
X184467500Y-57150000D01*
X173831250Y-58737500D02*
X175418750Y-57150000D01*
X166052500Y-57785000D02*
X172878750Y-57785000D01*
X172878750Y-57785000D02*
X173831250Y-58737500D01*
X184591844Y-76324344D02*
X185102500Y-76835000D01*
X166052500Y-76835000D02*
X166563156Y-76324344D01*
X166052500Y-76835000D02*
X172878750Y-76835000D01*
X172878750Y-76835000D02*
X173037500Y-76993750D01*
X173037500Y-76993750D02*
X176212500Y-76993750D01*
X176212500Y-76993750D02*
X177800000Y-75406250D01*
X183673750Y-75406250D02*
X185102500Y-76835000D01*
X177800000Y-75406250D02*
X183673750Y-75406250D01*
X132556250Y-81756250D02*
X133350000Y-80962500D01*
X133350000Y-80962500D02*
X133350000Y-61118750D01*
X144447231Y-62705881D02*
X142081619Y-62705881D01*
X142081619Y-62705881D02*
X142081250Y-62706250D01*
X142081250Y-62706250D02*
X142081250Y-63500000D01*
X142081250Y-63500000D02*
X140493750Y-65087500D01*
X140493750Y-65087500D02*
X136525000Y-65087500D01*
X136525000Y-65087500D02*
X135731250Y-65087500D01*
X135731250Y-65087500D02*
X135731250Y-64293750D01*
X135731250Y-64293750D02*
X134937500Y-63500000D01*
X134937500Y-63500000D02*
X134937500Y-62706250D01*
M02*
