M48
; DRILL file {KiCad (5.1.4)-1} date 22/07/2024 3:45:58 pm
; FORMAT={-:-/ absolute / inch / decimal}
; #@! TF.CreationDate,2024-07-22T15:45:58+08:00
; #@! TF.GenerationSoftware,Kicad,Pcbnew,(5.1.4)-1
; #@! TF.FileFunction,Plated,1,2,PTH
FMAT,2
INCH
T1C0.0157
T2C0.0276
T3C0.0409
T4C0.0579
%
G90
G05
T1
X4.8438Y-2.375
X4.9375Y-2.3125
X5.0625Y-2.3331
X5.1791Y-2.3438
X5.2188Y-3.2188
X5.25Y-2.4062
X5.3125Y-2.4688
X5.4062Y-2.9688
X5.5312Y-2.875
X5.5625Y-3.0
X5.6291Y-2.876
X5.6562Y-2.7188
X5.6869Y-2.4687
X5.7188Y-2.2188
X5.7812Y-2.1875
X5.7812Y-2.375
X5.7812Y-2.5938
X5.875Y-2.6562
X5.9062Y-2.1169
X5.9062Y-2.1562
X5.9062Y-2.375
X5.9375Y-2.5938
X5.9688Y-2.625
X6.0938Y-2.7188
X6.0938Y-2.7812
X6.0938Y-3.0312
X6.1562Y-2.7812
X6.375Y-2.25
X7.0Y-3.25
X7.7188Y-3.2812
X7.7188Y-3.2812
T3
X7.3875Y-3.325
X7.4875Y-3.325
X6.6375Y-2.575
X6.7375Y-2.575
X6.6375Y-3.325
X6.7375Y-3.325
X7.3875Y-2.575
X7.4875Y-2.575
T4
X7.2875Y-3.025
X7.3391Y-2.9675
X7.5359Y-2.9478
X7.5375Y-2.925
X6.5375Y-2.275
X6.5891Y-2.2175
X6.7859Y-2.1978
X6.7875Y-2.175
X6.5375Y-3.025
X6.5891Y-2.9675
X6.7859Y-2.9478
X6.7875Y-2.925
X7.2875Y-2.275
X7.3391Y-2.2175
X7.5359Y-2.1978
X7.5375Y-2.175
T2
G00X4.8563Y-2.0464
M15
G01X4.8563Y-2.0936
M16
G05
G00X4.8563Y-2.2235
M15
G01X4.8563Y-2.2708
M16
G05
G00X5.1437Y-2.0464
M15
G01X5.1437Y-2.0936
M16
G05
G00X5.1437Y-2.2235
M15
G01X5.1437Y-2.2708
M16
G05
T0
M30
